<svg width="40" height="40" viewBox="0 0 40 40" fill="none" xmlns="http://www.w3.org/2000/svg">
<ellipse cx="20.2381" cy="20.1421" rx="13.0952" ry="13.6905" fill="#F53838"/>
<path d="M20 0C8.95417 0 0 8.95417 0 20C0 31.0458 8.95417 40 20 40C31.0458 40 40 31.0458 40 20C40 8.95417 31.0458 0 20 0ZM24.7375 13.8208H21.7312C21.375 13.8208 20.9792 14.2896 20.9792 14.9125V17.0833H24.7396L24.1708 20.1792H20.9792V29.4729H17.4312V20.1792H14.2125V17.0833H17.4312V15.2625C17.4312 12.65 19.2437 10.5271 21.7312 10.5271H24.7375V13.8208Z" fill="#EEEFF2"/>
</svg>
